<?xml version="1.0" encoding="utf-8"?>
<svg version="1.1" xmlns="http://www.w3.org/2000/svg" xmlns:xlink="http://www.w3.org/1999/xlink" fill="#ffffff" x="0px" y="0px" viewBox="0 0 1366 768" style="enable-background:new 0 0 1366 768;" xml:space="preserve">
	<g id="Logo">
		<g id="Anubis">
			<path class="st0" d="M211.45,213.89c-1.24,1.49-0.75,4.64,2.24,14.5c2.07,6.96,2.24,7.04,9.94,14.42
				c27.26,25.77,44.17,56.1,47.07,84.44l0.58,5.64l5.47,2.49c2.98,1.33,5.55,2.32,5.72,2.15c0.41-0.41-5.8-21.88-9.12-31.66
				c-4.97-14.42-8.78-23.62-15.91-38.12c-10.69-21.71-22.21-38.29-34.47-49.64C216.84,212.4,213.61,211.24,211.45,213.89
				L211.45,213.89z"/>
			<path class="st0" d="M184.52,223.42c-0.25,0.5,4.89,16.99,11.52,36.71c16.82,50.05,21.63,67.95,22.62,83.53
				c0.41,7.13,0.25,8.45-1.33,11.6c-4.14,8.45-11.93,14.34-33.81,25.52c-12.76,6.46-17.49,9.28-19.47,11.68
				c-1.49,1.74-6.05,8.7-10.19,15.41c-10.44,17.15-18.65,28.51-26.44,36.63c-5.39,5.55-10.11,9.2-23.29,17.98
				c-25.94,17.07-34.06,24.36-33.4,30c0.17,1.82,1.49,3.15,6.05,6.22c8.37,5.72,18.65,10.61,21.96,10.61c1.66,0,7.29-1.91,12.84-4.23
				c23.53-10.03,52.79-20.72,62.57-22.79c4.64-0.99,6.88-0.91,16.57,0.17c12.51,1.49,22.46,1.16,28.34-0.91
				c4.39-1.57,9.78-6.3,12.02-10.69l1.49-2.82l4.97,7.38c2.73,3.98,5.3,7.21,5.72,7.13c0.41-0.17,1.24-0.99,1.82-1.91
				c0.99-1.41,0.41-3.07-4.97-13.76c-8.37-16.57-10.03-21.71-8.87-27.35c0.58-2.4,2.82-7.79,5.06-11.85
				c9.2-16.57,13.42-27.43,19.06-49.47c8.12-32.07,8.7-46.82,2.4-67.62c-5.64-18.65-24.61-45.58-50.47-71.52
				C194.47,226.23,186.26,220.6,184.52,223.42L184.52,223.42z M232.59,367.61c0,2.49-25.94,23.04-34.39,27.35
				c-2.49,1.24-6.8,2.9-9.45,3.73c-10.86,3.07-18.07,8.37-21.96,16.08c-1.99,3.73-3.15,4.81-4.39,3.56
				c-2.07-2.07,7.13-14.09,13.92-18.07c1.91-1.16,7.29-3.31,11.93-4.81c10.61-3.56,22.87-11.77,39.36-26.52
				C230.93,366.03,232.59,365.54,232.59,367.61L232.59,367.61z M230.02,379.71c3.89,1.49-1.66,6.63-24.2,21.96
				c-9.2,6.3-9.61,6.71-12.35,12.35c-3.81,7.79-6.88,9.86-15.75,10.69c-5.8,0.5-7.04,0.91-10.77,3.65c-4.64,3.4-5.39,3.65-6.88,1.82
				c-0.83-0.99-0.58-1.57,1.33-3.31c1.33-1.24,3.4-2.82,4.64-3.56s2.73-2.49,3.31-3.81c2.65-6.46,10.77-12.26,20.97-14.92
				c5.3-1.41,11.68-5.39,28.18-17.82c5.47-4.14,10.03-7.54,10.11-7.54C228.69,379.21,229.27,379.46,230.02,379.71L230.02,379.71z"/>
			<path class="st0" d="M271.28,354.52c-4.14,30.33-12.68,57.18-22.71,71.76c-2.98,4.39-6.55,12.84-6.63,15.83
				c-0.08,1.24,1.74,6.3,3.89,11.27c7.96,18.31,9.28,24.28,6.3,29.09c-1.74,2.82-6.13,6.46-8.78,7.29c-1.16,0.33-2.24,2.24-3.56,6.05
				c-2.9,8.37-10.11,23.04-14.58,29.92c-2.24,3.31-6.38,8.62-9.2,11.68c-10.03,10.94-20.39,33.98-34.47,76.32l-4.81,14.5l14.67,0.25
				c8.04,0.08,15,0.08,15.58-0.17c0.5-0.17,1.16-3.81,1.49-8.95c1.91-29.34,9.53-59.17,18.48-72.18
				c5.72-8.29,31.24-22.79,59.91-34.14c30-11.77,60.66-19.56,91.98-23.29c13.09-1.49,45.74-2.07,56.1-0.91l5.97,0.66l-0.91-2.65
				c-1.82-5.3-9.53-19.56-15-27.84c-22.37-33.89-57.68-65.55-103.75-93.06c-9.7-5.8-46.24-24.86-47.65-24.86
				C273.36,341.09,272.28,347.14,271.28,354.52L271.28,354.52z M295.15,373.91c44.91,24.86,80.88,56.6,104.91,92.73
				c3.31,5.05,6.13,9.53,6.13,9.78c0,0.33-2.82,0.58-6.22,0.58h-6.13l-4.14-6.05c-21.79-32.32-56.68-62.9-98.7-86.68
				c-5.72-3.15-10.77-6.13-11.27-6.46c-1.24-0.83,0.33-11.02,1.66-11.02C281.89,366.78,288.11,370.01,295.15,373.91L295.15,373.91z
				 M285.62,400.18c28.42,18.89,52.87,42.1,74.42,70.77c3.48,4.64,6.38,8.62,6.38,8.78c0,0.25-2.65,0.91-5.88,1.41
				c-5.72,0.99-5.88,0.99-7.21-0.91c-3.4-4.89-13.42-16.91-21.13-25.44c-14.34-15.91-34.56-33.23-52.7-45.33l-8.2-5.47l1.74-5.3
				C275.01,392.55,273.94,392.39,285.62,400.18z M275.76,430.34c12.26,10.19,28.84,26.52,37.37,36.71
				c6.71,8.12,15.33,19.97,14.83,20.47c-0.17,0.17-2.57,0.99-5.39,1.91l-4.97,1.49l-5.47-7.29c-11.1-14.92-29.34-33.4-46.74-47.48
				l-6.46-5.22l2.57-4.72c1.41-2.57,2.82-4.72,3.07-4.72C264.82,421.47,269.88,425.45,275.76,430.34L275.76,430.34z M271.12,472.19
				c6.8,10.11,16.16,27.93,15.08,28.84c-0.75,0.66-9.53,4.23-9.7,3.98c0-0.17-0.83-1.91-1.66-3.89c-0.91-1.99-3.56-7.21-5.97-11.52
				c-3.98-7.21-4.39-8.45-4.39-13.09c0-3.56-0.75-7.46-2.49-12.51l-2.4-7.29l2.4,2.9C263.41,461.17,267.47,466.89,271.12,472.19z
				 M254.05,504.09c0.91,11.27,1.16,10.61-4.72,13.92c-2.9,1.57-5.55,2.9-5.8,2.9c-1.33,0-0.41-4.31,2.24-10.44
				c1.57-3.56,3.4-7.96,4.14-9.7C251.98,495.72,253.39,496.8,254.05,504.09L254.05,504.09z"/>
			<path class="st0" d="M411.5,503.35c-0.5,0.33-1.91,3.73-3.07,7.62c-9.45,30.91-34.39,58.26-69.03,75.66
				c-27.93,14-57.68,21.21-106.82,25.94l-4.23,0.41l0.66,7.96c0.33,4.39,0.75,8.04,0.83,8.2c0.66,0.58,18.98,2.82,27.6,3.23
				c24.69,1.41,57.01-4.06,81.38-13.76c32.07-12.68,64.89-37.29,82.54-61.82c11.52-16.08,19.64-37.13,19.64-50.88v-3.23h-14.25
				C418.87,502.68,412,503.02,411.5,503.35L411.5,503.35z"/>
			<path class="st0" d="M388.38,505c-6.22,0.58-27.35,3.73-34.8,5.22c-38.62,7.71-70.94,20.3-97.21,37.79
				c-12.35,8.2-17.24,13.09-21.13,21.05c-3.4,6.88-6.38,17.49-6.38,22.46v3.15h3.98c10.77,0,39.45-4.39,56.52-8.7
				c20.22-5.05,40.69-13.34,54.61-22.04c20.3-12.76,36.13-30.33,44.17-48.98C391.86,506.25,391.94,504.67,388.38,505L388.38,505z"/>
		</g>
		<g id="Kemet_UI">
			<path class="st0" d="M566.82,571.73c-3.4-5.22-7.32-10.71-11.76-16.46c-4.44-5.75-9.11-11.3-14.01-16.66
				c-4.9-5.36-9.97-10.45-15.19-15.29c-5.23-4.83-10.39-9.02-15.48-12.54v60.96h-24.7V435.9h24.7v56.06
				c4.31-4.31,8.82-8.92,13.52-13.82c4.7-4.9,9.37-9.86,14.01-14.9c4.64-5.03,9.05-9.9,13.23-14.6c4.18-4.7,7.97-8.95,11.37-12.74
				h29.6c-4.31,4.97-8.89,10.13-13.72,15.48c-4.84,5.36-9.8,10.75-14.9,16.17c-5.1,5.42-10.23,10.81-15.39,16.17
				c-5.16,5.36-10.23,10.46-15.19,15.29c5.49,4.18,11.07,9.05,16.76,14.6c5.68,5.56,11.27,11.5,16.76,17.84
				c5.49,6.34,10.75,12.94,15.78,19.8c5.03,6.86,9.63,13.69,13.82,20.48H566.82z"/>
			<path class="st0" d="M597.2,520.97c0-9.02,1.34-16.92,4.02-23.72c2.68-6.79,6.24-12.45,10.68-16.95
				c4.44-4.51,9.54-7.9,15.29-10.19c5.75-2.28,11.63-3.43,17.64-3.43c14.11,0,25.12,4.38,33.03,13.13
				c7.91,8.76,11.86,21.82,11.86,39.2c0,1.31-0.03,2.78-0.1,4.41c-0.07,1.64-0.17,3.11-0.29,4.41H621.7
				c0.65,8.23,3.56,14.6,8.72,19.11c5.16,4.51,12.64,6.76,22.44,6.76c5.75,0,11.01-0.52,15.78-1.57c4.77-1.04,8.53-2.16,11.27-3.33
				l3.14,19.4c-1.31,0.66-3.11,1.34-5.39,2.06c-2.29,0.72-4.9,1.37-7.84,1.96c-2.94,0.59-6.11,1.08-9.51,1.47
				c-3.4,0.39-6.86,0.59-10.39,0.59c-9.02,0-16.86-1.34-23.52-4.02s-12.15-6.4-16.46-11.17c-4.31-4.77-7.52-10.39-9.6-16.86
				C598.25,535.76,597.2,528.68,597.2,520.97z M666,510.38c0-3.26-0.46-6.37-1.37-9.31c-0.92-2.94-2.25-5.49-4.02-7.64
				c-1.76-2.16-3.92-3.85-6.47-5.1c-2.55-1.24-5.59-1.86-9.11-1.86c-3.66,0-6.86,0.69-9.6,2.06s-5.07,3.17-6.96,5.39
				c-1.9,2.22-3.37,4.77-4.41,7.64c-1.05,2.88-1.76,5.82-2.16,8.82H666z"/>
			<path class="st0" d="M768.5,517.83c0-10.71-1.34-18.45-4.02-23.23c-2.68-4.77-7.68-7.15-14.99-7.15c-2.62,0-5.49,0.2-8.62,0.59
				c-3.14,0.39-5.49,0.72-7.06,0.98v82.71H710.1v-99.18c4.57-1.3,10.55-2.55,17.93-3.72c7.38-1.18,15.19-1.76,23.42-1.76
				c7.06,0,12.84,0.92,17.35,2.74c4.51,1.83,8.26,4.25,11.27,7.25c1.44-1.04,3.26-2.16,5.49-3.33c2.22-1.18,4.7-2.25,7.45-3.23
				s5.65-1.79,8.72-2.45c3.07-0.65,6.17-0.98,9.31-0.98c7.97,0,14.53,1.15,19.7,3.43c5.16,2.29,9.21,5.49,12.15,9.6
				c2.94,4.12,4.96,9.08,6.08,14.9c1.11,5.82,1.67,12.19,1.67,19.11v57.62h-23.72v-53.9c0-10.71-1.31-18.45-3.92-23.23
				c-2.62-4.77-7.64-7.15-15.09-7.15c-3.79,0-7.38,0.62-10.78,1.86c-3.4,1.24-5.95,2.45-7.64,3.63c1.04,3.27,1.76,6.73,2.16,10.39
				c0.39,3.66,0.59,7.58,0.59,11.76v56.64H768.5V517.83z"/>
			<path class="st0" d="M869.25,520.97c0-9.02,1.34-16.92,4.02-23.72c2.68-6.79,6.24-12.45,10.68-16.95
				c4.44-4.51,9.54-7.9,15.29-10.19c5.75-2.28,11.63-3.43,17.64-3.43c14.11,0,25.12,4.38,33.03,13.13
				c7.91,8.76,11.86,21.82,11.86,39.2c0,1.31-0.03,2.78-0.1,4.41c-0.07,1.64-0.17,3.11-0.29,4.41h-67.62
				c0.65,8.23,3.56,14.6,8.72,19.11c5.16,4.51,12.64,6.76,22.44,6.76c5.75,0,11.01-0.52,15.78-1.57c4.77-1.04,8.53-2.16,11.27-3.33
				l3.14,19.4c-1.31,0.66-3.11,1.34-5.39,2.06c-2.29,0.72-4.9,1.37-7.84,1.96c-2.94,0.59-6.11,1.08-9.51,1.47
				c-3.4,0.39-6.86,0.59-10.39,0.59c-9.02,0-16.86-1.34-23.52-4.02s-12.15-6.4-16.46-11.17c-4.31-4.77-7.52-10.39-9.6-16.86
				C870.29,535.76,869.25,528.68,869.25,520.97z M938.04,510.38c0-3.26-0.46-6.37-1.37-9.31c-0.92-2.94-2.25-5.49-4.02-7.64
				c-1.76-2.16-3.92-3.85-6.47-5.1c-2.55-1.24-5.59-1.86-9.11-1.86c-3.66,0-6.86,0.69-9.6,2.06s-5.07,3.17-6.96,5.39
				c-1.9,2.22-3.37,4.77-4.41,7.64c-1.05,2.88-1.76,5.82-2.16,8.82H938.04z"/>
			<path class="st0" d="M980.97,442.17l23.72-3.92v30.97h36.46v19.8h-36.46v41.75c0,8.23,1.3,14.11,3.92,17.64
				c2.61,3.53,7.06,5.29,13.33,5.29c4.31,0,8.13-0.46,11.47-1.37c3.33-0.91,5.98-1.76,7.94-2.55l3.92,18.82
				c-2.74,1.18-6.34,2.39-10.78,3.63c-4.44,1.24-9.67,1.86-15.68,1.86c-7.32,0-13.43-0.98-18.33-2.94s-8.79-4.8-11.66-8.53
				c-2.88-3.72-4.9-8.23-6.08-13.52c-1.18-5.29-1.76-11.33-1.76-18.13V442.17z"/>
			<path class="st0" d="M1153.83,574.67c-9.28,0-17.25-1.34-23.91-4.02c-6.66-2.68-12.19-6.43-16.56-11.27
				c-4.38-4.83-7.61-10.52-9.7-17.05c-2.09-6.53-3.14-13.72-3.14-21.56V435.9h24.89v82.52c0,6.14,0.69,11.4,2.06,15.78
				c1.37,4.38,3.33,7.94,5.88,10.68s5.55,4.77,9.02,6.08c3.46,1.31,7.35,1.96,11.66,1.96c4.31,0,8.23-0.65,11.76-1.96
				c3.53-1.3,6.57-3.33,9.11-6.08s4.51-6.3,5.88-10.68c1.37-4.38,2.06-9.63,2.06-15.78V435.9h24.89v84.87
				c0,7.84-1.08,15.03-3.23,21.56c-2.16,6.54-5.42,12.22-9.8,17.05c-4.38,4.84-9.96,8.59-16.76,11.27
				C1171.15,573.33,1163.11,574.67,1153.83,574.67z"/>
			<path class="st0" d="M1234.58,435.9h24.7v135.83h-24.7V435.9z"/>
		</g>
	</g>
</svg>
